<svg width="448" height="512" viewBox="0 0 448 512" fill="none" xmlns="http://www.w3.org/2000/svg">
<g clip-path="url(#clip0)">
<path d="M268 416H292C295.183 416 298.235 414.736 300.485 412.485C302.736 410.235 304 407.183 304 404V188C304 184.817 302.736 181.765 300.485 179.515C298.235 177.264 295.183 176 292 176H268C264.817 176 261.765 177.264 259.515 179.515C257.264 181.765 256 184.817 256 188V404C256 407.183 257.264 410.235 259.515 412.485C261.765 414.736 264.817 416 268 416ZM432 80H349.59L315.59 23.3C311.323 16.1902 305.287 10.3069 298.07 6.22357C290.853 2.14022 282.702 -0.00394339 274.41 5.44446e-06H173.59C165.301 -0.000488769 157.154 2.14532 149.941 6.2285C142.728 10.3117 136.695 16.1931 132.43 23.3L98.41 80H16C11.7565 80 7.68687 81.6857 4.68629 84.6863C1.68571 87.6869 0 91.7565 0 96L0 112C0 116.243 1.68571 120.313 4.68629 123.314C7.68687 126.314 11.7565 128 16 128H32V464C32 476.73 37.0571 488.939 46.0589 497.941C55.0606 506.943 67.2696 512 80 512H368C380.73 512 392.939 506.943 401.941 497.941C410.943 488.939 416 476.73 416 464V128H432C436.243 128 440.313 126.314 443.314 123.314C446.314 120.313 448 116.243 448 112V96C448 91.7565 446.314 87.6869 443.314 84.6863C440.313 81.6857 436.243 80 432 80ZM171.84 50.91C172.375 50.0199 173.131 49.2838 174.036 48.7738C174.94 48.2637 175.962 47.9971 177 48H271C272.037 47.9988 273.056 48.2663 273.959 48.7762C274.861 49.2862 275.616 50.0214 276.15 50.91L293.61 80H154.39L171.84 50.91ZM368 464H80V128H368V464ZM156 416H180C183.183 416 186.235 414.736 188.485 412.485C190.736 410.235 192 407.183 192 404V188C192 184.817 190.736 181.765 188.485 179.515C186.235 177.264 183.183 176 180 176H156C152.817 176 149.765 177.264 147.515 179.515C145.264 181.765 144 184.817 144 188V404C144 407.183 145.264 410.235 147.515 412.485C149.765 414.736 152.817 416 156 416Z" fill="#F1732E"/>
</g>
<defs>
<clipPath id="clip0">
<rect width="448" height="512" fill="white"/>
</clipPath>
</defs>
</svg>
